# xmcd
#
# Track frame offsets: 
#        150
#        14387
#        24425
#        37139
#        47004
#        60380
#        69493
#        79682
#        91012
#        101891
#        124447
#        141431
#        153771
#        155633
#        175117
#        189233
#        197809
#        212028
#        226816
#        241181
#        257185
#
# Disc length: 3598 seconds
#
# Revision: 0
# Processed by: cddbd v1.5.2PL0 Copyright (c) Steve Scherf et al.
# Submitted via: ExactAudioCopy v0.99pb3
#
DISCID=1a0e0c15
DTITLE=Replacements - CBGB's New York
DYEAR=1984
DGENRE=Ambient
TTITLE0=I Will Dare
TTITLE1=Favorite Thing
TTITLE2=Can't Hardly Wait
TTITLE3=White and Lazy
TTITLE4=Light My Fire
TTITLE5=Don't Ask Why
TTITLE6=Hitchin' a Ride
TTITLE7=Takin' a Ride
TTITLE8=Color Me Impressed
TTITLE9=Don't Get Married
TTITLE10=Take Me Down to the Hospital
TTITLE11=Black Diamond
TTITLE12=I'm in Trouble
TTITLE13=Unsatisfied
TTITLE14=Kiss Me on the Bus
TTITLE15=Don't Ask Why
TTITLE16=Can't Hardly Wait
TTITLE17=I Won't
TTITLE18=Asking Me Lies
TTITLE19=I'll Be You
TTITLE20=Cruella DeVille
EXTD=
EXTT0=
EXTT1=
EXTT2=
EXTT3=
EXTT4=
EXTT5=
EXTT6=
EXTT7=
EXTT8=
EXTT9=
EXTT10=
EXTT11=
EXTT12=
EXTT13=
EXTT14=
EXTT15=
EXTT16=
EXTT17=
EXTT18=
EXTT19=
EXTT20=
PLAYORDER=
